<svg width="224" height="224" viewBox="0 0 224 224" fill="none" xmlns="http://www.w3.org/2000/svg">
<g clip-path="url(#clip0_1116_6431)">
<path d="M0 24C0 10.7452 10.7452 0 24 0H200C213.255 0 224 10.7452 224 24V200C224 213.255 213.255 224 200 224H24C10.7452 224 0 213.255 0 200V24Z" fill="#211D50"/>
<path d="M27.2151 81.3895L-4.25833 90.4063L8.97647 136.544L17.4397 134.122L12.0339 115.284L32.7397 109.35L30.3097 100.89L9.61073 106.823L6.63484 96.4455L29.6383 89.8505L27.2151 81.3895Z" fill="#FFF2BD"/>
<path d="M45.9765 85.1249L56.4111 82.1261C59.7378 81.1724 63.2583 83.4976 64.2185 86.8999C65.1787 90.3021 63.4081 94.0049 60.0815 94.9585L49.6809 97.9568L45.9765 85.1249ZM67.9879 100.325C72.1578 96.4852 74.3207 90.2456 72.6639 84.469C70.389 76.5151 61.4112 71.5292 53.984 73.662L35.1038 79.0848L48.3238 125.277L56.7692 122.846L52.0739 106.421L59.623 104.239L72.5535 118.305L82.0582 115.582L67.9879 100.325Z" fill="#FFF2BD"/>
<path d="M97.0266 90.4991L98.5753 73.8431L108.639 87.1658L97.0266 90.4991ZM99.8672 60.8846L90.6232 63.5326L85.9076 115.002L95.0834 112.362L96.2217 99.2285L113.872 94.1251L121.848 104.648L131.031 102.007L99.8672 60.8846Z" fill="#FFF2BD"/>
<path d="M165.591 41.4616L153.221 44.9913L150.834 73.1498L133.745 50.5435L121.507 54.0363L134.949 100.68L143.541 98.2312L133.683 64.023L149.513 84.9595L158.236 82.4669L160.539 56.2226L170.434 90.5544L179.033 88.1054L165.591 41.4616Z" fill="#FFF2BD"/>
<path d="M207.384 38.7875L207.362 38.7186L207.431 38.7035L204.991 30.193L172.393 39.5419L185.801 86.3259L218.399 76.9771L215.937 68.3976L191.912 75.2911L188.897 64.7614L210.519 58.5607L208.064 49.9811L186.442 56.1887L183.421 45.6591L207.384 38.7875Z" fill="#FFF2BD"/>
<path d="M21.9957 150.22L32.6401 147.173C36.0335 146.195 39.6246 148.562 40.604 152.027C41.5834 155.492 39.7841 159.263 36.3837 160.234L25.746 163.267L21.9957 150.22ZM44.4562 165.727C48.7031 161.823 50.9095 155.462 49.2265 149.579C46.9062 141.479 37.7413 136.402 30.1718 138.574L10.9054 144.097L24.3896 191.145L33.0118 188.676L28.2157 171.95L35.9234 169.727L49.1407 184.037L58.8364 181.263L44.4562 165.727Z" fill="#FFF2BD"/>
<path d="M82.575 166.452L73.418 134.727L85.8693 131.183L83.717 123.733L50.2763 133.259L52.4286 140.71L64.8107 137.182L73.9677 168.907L61.5856 172.436L63.7309 179.88L97.2407 170.331L95.0885 162.887L82.575 166.452Z" fill="#FFF2BD"/>
<path d="M137.804 130.929L112.343 138.188L114.645 146.163L131.555 141.276C131.801 142.129 131.912 151.648 121.112 154.7C112.876 157.046 104.231 152.847 101.607 143.693C100.992 141.727 100.776 139.66 100.971 137.61C101.166 135.561 101.769 133.57 102.745 131.754C103.721 129.937 105.05 128.331 106.655 127.028C108.26 125.725 110.11 124.751 112.097 124.163C114.789 123.332 117.671 123.326 120.367 124.144C122.538 124.871 124.417 126.272 125.723 128.142L135.6 125.329C131.953 117.509 121.001 112.285 109.937 115.439C106.779 116.341 103.831 117.852 101.263 119.888C98.6953 121.923 96.5573 124.441 94.9721 127.299C93.3869 130.156 92.3857 133.297 92.0259 136.539C91.6661 139.782 91.9549 143.063 92.8756 146.194C96.7245 159.536 109.533 167.357 122.77 163.586C129.951 161.537 133.429 157.295 135.046 153.015L136.817 159.159L145.248 156.761L137.804 130.929Z" fill="#FFF2BD"/>
<path d="M176.894 97.0968L168.271 99.5291L173.772 118.374L151.768 124.572L146.266 105.727L137.643 108.159L151.112 154.307L159.735 151.881L154.234 133.036L176.245 126.831L181.739 145.676L190.362 143.251L176.894 97.0968Z" fill="#FFF2BD"/>
<path d="M260.352 73.4739L183.734 95.2829L186.21 103.828L200.375 99.8148L211.426 137.864L220.077 135.409L209.033 97.3603L262.835 82.0184L260.352 73.4739Z" fill="#FFF2BD"/>
</g>
<defs>
<clipPath id="clip0_1116_6431">
<path d="M0 24C0 10.7452 10.7452 0 24 0H200C213.255 0 224 10.7452 224 24V200C224 213.255 213.255 224 200 224H24C10.7452 224 0 213.255 0 200V24Z" fill="white"/>
</clipPath>
</defs>
</svg>
